<?xml version="1.0" encoding="UTF-8"?>
<!DOCTYPE svg PUBLIC "-//W3C//DTD SVG 1.1//EN" "http://www.w3.org/Graphics/SVG/1.1/DTD/svg11.dtd">
<svg xmlns="http://www.w3.org/2000/svg" version="1.1" width="100px" height="113px" style="shape-rendering:geometricPrecision; text-rendering:geometricPrecision; image-rendering:optimizeQuality; fill-rule:evenodd; clip-rule:evenodd" xmlns:xlink="http://www.w3.org/1999/xlink">
<g><path style="opacity:1" fill="#324B4A" d="M -0.5,-0.5 C 22.5,-0.5 45.5,-0.5 68.5,-0.5C 68.5,15.5 68.5,31.5 68.5,47.5C 68.5,53.1667 68.5,58.8333 68.5,64.5C 55.8333,64.5 43.1667,64.5 30.5,64.5C 20.1667,64.5 9.83333,64.5 -0.5,64.5C -0.5,42.8333 -0.5,21.1667 -0.5,-0.5 Z"/></g>
<g><path style="opacity:1" fill="#007170" d="M 68.5,47.5 C 78.8333,47.5 89.1667,47.5 99.5,47.5C 99.5,69.1667 99.5,90.8333 99.5,112.5C 76.5,112.5 53.5,112.5 30.5,112.5C 30.5,96.5 30.5,80.5 30.5,64.5C 43.1667,64.5 55.8333,64.5 68.5,64.5C 68.5,58.8333 68.5,53.1667 68.5,47.5 Z"/></g>
</svg>
