<?xml version="1.0" encoding="iso-8859-1"?>
<!-- Generator: Adobe Illustrator 19.0.0, SVG Export Plug-In . SVG Version: 6.00 Build 0)  -->
<svg fill="ffffff" width="63px" version="1.1" id="Layer_1" xmlns="http://www.w3.org/2000/svg" xmlns:xlink="http://www.w3.org/1999/xlink" x="0px" y="0px"
	 viewBox="0 0 512 512" style="enable-background:new 0 0 512 512;" xml:space="preserve">
<g transform="translate(1 1)">
	<g>
		<path fill="#ffffff" d="M429.507,16.067c-3.413-1.707-7.68,0-10.24,1.707L358.68,93.72c-1.355,2.032-2.155,4.064-2.008,6.096l-52.108,121.051
			H289.56v-128V75.8c0-0.853,0-1.707-0.853-3.413l-25.6-68.267C262.253,1.56,258.84-1,255.427-1s-6.827,2.56-7.68,5.12l-25.6,68.267
			c-0.853,1.707-0.853,2.56-0.853,3.413v17.067v128h-15.843L152.173,96.28c-0.678-1.694-1.898-2.977-3.385-3.811L89.88,18.627
			c-1.707-2.56-5.973-4.267-9.387-2.56s-5.973,5.12-5.12,9.387l13.653,96.427c0,1.637,0.703,2.923,1.876,4.086l40.778,94.901h-21.32
			c-5.12,0-8.533,3.413-8.533,8.533v34.133v51.2v102.4v51.2v8.533c0,18.773,15.36,34.133,34.133,34.133h247.467
			c18.773,0,34.133-15.36,34.133-34.133v-8.533v-51.2v-102.4v-51.2V229.4c0-5.12-3.413-8.533-8.533-8.533h-30.34l40.822-95.003
			c0.917-1.133,1.465-2.553,1.465-3.984l13.653-96.427C435.48,21.187,432.92,17.773,429.507,16.067z M413.293,52.76l-7.68,54.613
			L379.16,96.28L413.293,52.76z M238.36,77.507l17.067-45.227l17.067,45.227v6.827H238.36V77.507z M238.36,101.4h34.133v119.467
			h-8.533V152.6c0-5.12-3.413-8.533-8.533-8.533s-8.533,3.413-8.533,8.533v68.267h-8.533V101.4z M130.459,96.648l-26.099,11.389
			l-7.653-54.423L130.459,96.648z M108.676,125.346l15.761-6.877l15.79-6.828l46.933,109.227h-37.547L108.676,125.346z
			 M400.493,340.333H366.36c-5.12,0-8.533,3.413-8.533,8.533s3.413,8.533,8.533,8.533h34.133v17.067H340.76
			c-5.12,0-8.533,3.413-8.533,8.533s3.413,8.533,8.533,8.533h59.733V408.6H315.16v-85.333h85.333V340.333z M400.493,306.2h-93.867
			c-5.12,0-8.533,3.413-8.533,8.533v102.4c0,5.12,3.413,8.533,8.533,8.533h93.867V459.8h-281.6v-34.133h42.667
			c5.12,0,8.533-3.413,8.533-8.533v-102.4c0-5.12-3.413-8.533-8.533-8.533h-42.667v-34.133h281.6V306.2z M118.893,323.267h34.133
			V408.6h-34.133V323.267z M383.427,493.933H135.96c-9.387,0-17.067-7.68-17.067-17.067h281.6
			C400.493,486.253,392.813,493.933,383.427,493.933z M400.493,255h-281.6v-17.067h25.6h55.467h29.867h51.2h29.013h55.467h34.987
			V255z M322.84,220.867l47.673-109.819l31.528,13.758l-41.655,96.061H322.84z"/>
	</g>
</g>
<g>
</g>
<g>
</g>
<g>
</g>
<g>
</g>
<g>
</g>
<g>
</g>
<g>
</g>
<g>
</g>
<g>
</g>
<g>
</g>
<g>
</g>
<g>
</g>
<g>
</g>
<g>
</g>
<g>
</g>
</svg>
