<svg xmlns="http://www.w3.org/2000/svg" width="63px" fill="#ffffff" viewBox="0 0 64 64"><title>64-13</title><g id="Laptop"><path d="M63,36H53.28L54.97,29.2427A1,1,0,0,0,54,28H51V8a4.0042,4.0042,0,0,0-4-4H17a4.0045,4.0045,0,0,0-4,4V28H10a1,1,0,0,0-.97,1.2427L10.7191,36H1a1,1,0,0,0-1,1v5a1,1,0,0,0,1,1H3V59a1,1,0,0,0,2,0V43H8V59a1,1,0,0,0,2,0V51H54v8a1,1,0,0,0,2,0V43h3V59a1,1,0,0,0,2,0V43h2a1,1,0,0,0,1-1V37A1,1,0,0,0,63,36ZM15,8a2.002,2.002,0,0,1,2-2H47a2.0023,2.0023,0,0,1,2,2V28H15ZM43.7188,30l-.5,2H20.7808l-.5-2Zm-32.438,0h6.9383l.8107,3.2427A1,1,0,0,0,20,34H44a1,1,0,0,0,.97-.7573L45.78,30h6.9384l-1.5,6H12.7808ZM54,49H10V43H54Zm8-8H2V38H62Z" style="fill:#ffffff"/><path d="M30,47h4a1,1,0,0,0,0-2H30a1,1,0,0,0,0,2Z" style="fill:#ffffff"/><path d="M48,26V8a1,1,0,0,0-1-1H35a1,1,0,0,0-1,1,2,2,0,0,1-4,0,1,1,0,0,0-1-1H17a1,1,0,0,0-1,1V26a1,1,0,0,0,1,1H47A1,1,0,0,0,48,26Zm-2-1H18V9H28.1265A4,4,0,0,0,35.873,9H46Z" style="fill:#ffffff"/><circle cx="32" cy="8" r="1" style="fill:#ffffff"/></g></svg>